<?xml version="1.0" encoding="UTF-8" standalone="no"?>
<!-- Created with Inkscape (http://www.inkscape.org/) -->

<svg
   xmlns:osb="http://www.openswatchbook.org/uri/2009/osb"
   xmlns:dc="http://purl.org/dc/elements/1.1/"
   xmlns:cc="http://creativecommons.org/ns#"
   xmlns:rdf="http://www.w3.org/1999/02/22-rdf-syntax-ns#"
   xmlns:svg="http://www.w3.org/2000/svg"
   xmlns="http://www.w3.org/2000/svg"
   xmlns:xlink="http://www.w3.org/1999/xlink"
   xmlns:sodipodi="http://sodipodi.sourceforge.net/DTD/sodipodi-0.dtd"
   xmlns:inkscape="http://www.inkscape.org/namespaces/inkscape"
   width="138.95816"
   height="206.75865"
   viewBox="0 0 36.766013 54.704895"
   version="1.1"
   id="svg8"
   inkscape:version="0.92.1 r15371"
   sodipodi:docname="icon-2.svg">
  <defs
     id="defs2">
    <linearGradient
       id="linearGradient4819"
       osb:paint="solid">
      <stop
         style="stop-color:#b4c8d3;stop-opacity:1;"
         offset="0"
         id="stop4817" />
    </linearGradient>
    <linearGradient
       id="linearGradient4813"
       osb:paint="solid">
      <stop
         style="stop-color:#ffffff;stop-opacity:1;"
         offset="0"
         id="stop4811" />
    </linearGradient>
    <linearGradient
       id="linearGradient4807"
       osb:paint="solid">
      <stop
         style="stop-color:#0094bc;stop-opacity:1;"
         offset="0"
         id="stop4805" />
    </linearGradient>
    <linearGradient
       id="linearGradient4801"
       osb:paint="solid">
      <stop
         style="stop-color:#1abfdf;stop-opacity:1;"
         offset="0"
         id="stop4799" />
    </linearGradient>
    <linearGradient
       id="linearGradient4795"
       osb:paint="solid">
      <stop
         style="stop-color:#ef937e;stop-opacity:1;"
         offset="0"
         id="stop4793" />
    </linearGradient>
    <linearGradient
       id="linearGradient4789"
       osb:paint="solid">
      <stop
         style="stop-color:#f8c09d;stop-opacity:1;"
         offset="0"
         id="stop4787" />
    </linearGradient>
    <linearGradient
       id="linearGradient4783"
       osb:paint="solid">
      <stop
         style="stop-color:#fed883;stop-opacity:1;"
         offset="0"
         id="stop4781" />
    </linearGradient>
    <linearGradient
       id="linearGradient4777"
       osb:paint="solid">
      <stop
         style="stop-color:#fff79c;stop-opacity:1;"
         offset="0"
         id="stop4775" />
    </linearGradient>
    <linearGradient
       id="linearGradient4771"
       osb:paint="solid">
      <stop
         style="stop-color:#c42754;stop-opacity:1;"
         offset="0"
         id="stop4769" />
    </linearGradient>
    <linearGradient
       id="linearGradient4765"
       osb:paint="solid">
      <stop
         style="stop-color:#ee3466;stop-opacity:1;"
         offset="0"
         id="stop4763" />
    </linearGradient>
    <linearGradient
       id="linearGradient4759"
       osb:paint="solid">
      <stop
         style="stop-color:#8ec63f;stop-opacity:1;"
         offset="0"
         id="stop4757" />
    </linearGradient>
    <linearGradient
       id="linearGradient4753"
       osb:paint="solid">
      <stop
         style="stop-color:#d8df20;stop-opacity:1;"
         offset="0"
         id="stop4751" />
    </linearGradient>
    <linearGradient
       id="linearGradient4747"
       osb:paint="solid">
      <stop
         style="stop-color:#002337;stop-opacity:1;"
         offset="0"
         id="stop4745" />
    </linearGradient>
    <linearGradient
       id="linearGradient4741"
       osb:paint="solid">
      <stop
         style="stop-color:#0e3441;stop-opacity:1;"
         offset="0"
         id="stop4739" />
    </linearGradient>
    <linearGradient
       id="linearGradient4735"
       osb:paint="solid">
      <stop
         style="stop-color:#362337;stop-opacity:1;"
         offset="0"
         id="stop4733" />
    </linearGradient>
    <linearGradient
       id="linearGradient4729"
       osb:paint="solid">
      <stop
         style="stop-color:#523b58;stop-opacity:1;"
         offset="0"
         id="stop4727" />
    </linearGradient>
    <linearGradient
       id="linearGradient4723"
       osb:paint="solid">
      <stop
         style="stop-color:#018790;stop-opacity:1;"
         offset="0"
         id="stop4721" />
    </linearGradient>
    <linearGradient
       id="linearGradient4717"
       osb:paint="solid">
      <stop
         style="stop-color:#00b0ad;stop-opacity:1;"
         offset="0"
         id="stop4715" />
    </linearGradient>
    <linearGradient
       id="linearGradient4711"
       osb:paint="solid">
      <stop
         style="stop-color:#0e113a;stop-opacity:1;"
         offset="0"
         id="stop4709" />
    </linearGradient>
    <linearGradient
       id="linearGradient4705"
       osb:paint="solid">
      <stop
         style="stop-color:#1f2652;stop-opacity:1;"
         offset="0"
         id="stop4703" />
    </linearGradient>
    <linearGradient
       id="linearGradient4655">
      <stop
         style="stop-color:#000000;stop-opacity:1;"
         offset="0"
         id="stop4653" />
    </linearGradient>
    <linearGradient
       id="linearGradient4638">
      <stop
         style="stop-color:#fcd569;stop-opacity:1;"
         offset="0"
         id="stop4636" />
    </linearGradient>
    <linearGradient
       inkscape:collect="always"
       xlink:href="#linearGradient4735"
       id="linearGradient4737"
       x1="-719.02264"
       y1="31.426947"
       x2="-681.27179"
       y2="31.426947"
       gradientUnits="userSpaceOnUse" />
  </defs>
  <sodipodi:namedview
     id="base"
     pagecolor="#ffffff"
     bordercolor="#666666"
     borderopacity="1.0"
     inkscape:pageopacity="0.0"
     inkscape:pageshadow="2"
     inkscape:zoom="4.8219625"
     inkscape:cx="88.028844"
     inkscape:cy="73.937092"
     inkscape:document-units="px"
     inkscape:current-layer="svg8"
     showgrid="false"
     inkscape:window-width="1920"
     inkscape:window-height="986"
     inkscape:window-x="-11"
     inkscape:window-y="-11"
     inkscape:window-maximized="1"
     inkscape:snap-nodes="false"
     units="px"
     fit-margin-top="0"
     fit-margin-left="0"
     fit-margin-right="0"
     fit-margin-bottom="0" />
  <metadata
     id="metadata5">
    <rdf:RDF>
      <cc:Work
         rdf:about="">
        <dc:format>image/svg+xml</dc:format>
        <dc:type
           rdf:resource="http://purl.org/dc/dcmitype/StillImage" />
        <dc:title></dc:title>
      </cc:Work>
    </rdf:RDF>
  </metadata>
  <g
     id="g4870"
     transform="matrix(0.89429927,0,0,0.89429927,-125.6604,-76.763)">
    <path
       transform="scale(0.26458333)"
       id="path4847"
       d="m 635.90234,366.44727 a 61.385532,99.129492 0 0 0 -26.1914,-9.58985 61.385532,99.129492 0 0 0 -22.38477,6.83789 c -0.0694,0.58871 -0.0868,1.05058 -0.17578,1.6836 -0.29163,2.07384 -0.69389,4.38674 -1.23828,6.95312 -0.54439,2.56638 -1.22985,5.38586 -2.0918,8.4707 -0.86194,3.08485 -1.90022,6.43523 -3.14453,10.06446 -1.2443,3.62922 -2.65642,6.99198 -4.1875,10.11328 -1.53108,3.12129 -3.18103,6.00176 -4.89844,8.66211 -1.7174,2.66035 -3.50141,5.10126 -5.30468,7.34765 -1.80328,2.2464 -3.62538,4.29832 -5.41407,6.17774 -3.57738,3.75884 -7.02506,6.82948 -9.9414,9.40234 -0.4024,0.35501 -0.55053,0.54827 -0.93164,0.88477 a 61.385532,99.129492 0 0 0 -1.67383,22.53125 61.385532,99.129492 0 0 0 61.38672,99.1289 61.385532,99.129492 0 0 0 61.38476,-99.1289 61.385532,99.129492 0 0 0 -0.80078,-15.16406 c -0.99487,-0.48839 -2.0148,-0.88844 -2.96289,-1.53907 -1.60247,-1.0997 -3.13784,-2.41933 -4.60937,-3.92773 -1.47154,-1.5084 -2.87861,-3.2045 -4.22266,-5.05274 -1.34405,-1.84823 -2.6257,-3.84954 -3.8457,-5.96875 -1.22001,-2.11921 -2.37912,-4.3564 -3.47852,-6.67773 -1.0994,-2.32133 -2.13885,-4.72705 -3.12109,-7.18164 -1.96449,-4.90918 -3.69835,-10.01585 -5.21485,-15.04492 -1.5165,-5.02908 -2.81605,-9.98003 -3.91211,-14.57813 -1.09606,-4.5981 -1.98824,-8.84272 -2.6914,-12.45898 -0.2289,-1.17721 -0.14479,-0.91084 -0.33399,-1.94531 z"
       style="opacity:1;fill:none;fill-opacity:1;stroke:#000000;stroke-width:1.00053394;stroke-linecap:round;stroke-miterlimit:4;stroke-dasharray:none;stroke-opacity:1;paint-order:stroke fill markers"
       inkscape:connector-curvature="0" />
    <path
       sodipodi:nodetypes="ccsscscccsc"
       inkscape:connector-curvature="0"
       transform="scale(0.26458333)"
       id="path4772"
       d="m 635.31577,361.02148 c 0.1892,1.03447 0.69166,6.19389 0.92056,7.3711 0.70316,3.61626 1.59534,7.86088 2.6914,12.45898 1.09606,4.5981 2.39561,9.54905 3.91211,14.57813 1.5165,5.02907 3.25036,10.13574 5.21485,15.04492 0.98224,2.45459 2.02169,4.86031 3.12109,7.18164 1.0994,2.32133 2.25851,4.55852 3.47852,6.67773 1.22,2.11921 2.50165,4.12052 3.8457,5.96875 1.34405,1.84824 2.75112,3.54434 4.22266,5.05274 1.47153,1.5084 3.0069,2.82803 4.60937,3.92773 0.94809,0.65063 9.00688,3.25032 10.00175,3.73871"
       style="opacity:1;fill:none;fill-opacity:1;stroke:#000000;stroke-width:1.00053394;stroke-linecap:round;stroke-miterlimit:4;stroke-dasharray:none;stroke-opacity:1;paint-order:stroke fill markers" />
    <path
       sodipodi:nodetypes="ccssccccscc"
       inkscape:connector-curvature="0"
       transform="scale(0.26458333)"
       id="path4844"
       d="m 541.34612,439.3208 c 0.38111,-0.3365 9.18117,-6.39548 9.58357,-6.75049 2.91634,-2.57286 6.36402,-5.6435 9.9414,-9.40234 1.78869,-1.87942 3.61079,-3.93134 5.41407,-6.17774 1.80327,-2.24639 3.58728,-4.6873 5.30468,-7.34765 1.71741,-2.66035 3.36736,-5.54082 4.89844,-8.66211 1.53108,-3.1213 2.9432,-6.48406 4.1875,-10.11328 1.24431,-3.62923 2.28259,-6.97961 3.14453,-10.06446 0.86195,-3.08484 1.54741,-5.90432 2.0918,-8.4707 0.54439,-2.56638 0.94665,-4.87928 1.23828,-6.95312 0.089,-0.63302 0.39966,-5.78746 0.46907,-6.37617"
       style="opacity:1;fill:none;fill-opacity:1;stroke:#000000;stroke-width:1.00053394;stroke-linecap:round;stroke-miterlimit:4;stroke-dasharray:none;stroke-opacity:1;paint-order:stroke fill markers" />
    <path
       inkscape:connector-curvature="0"
       id="path4776"
       d="m 149.63176,116.47616 c 0,0 4.93834,-0.0549 6.47471,0.76818 -1.70099,-3.89581 -6.47471,-0.76818 -6.47471,-0.76818 z"
       style="fill:none;stroke:#000000;stroke-width:0.26458332px;stroke-linecap:butt;stroke-linejoin:miter;stroke-opacity:1" />
    <path
       inkscape:connector-curvature="0"
       id="path4778"
       d="m 165.70881,117.84792 c 0.10974,-0.21948 3.78606,-1.8656 6.8588,-1.04254 -3.67633,-4.44451 -6.8588,1.04254 -6.8588,1.04254 z"
       style="fill:none;stroke:#000000;stroke-width:0.26458332px;stroke-linecap:butt;stroke-linejoin:miter;stroke-opacity:1" />
    <path
       id="path4782"
       transform="scale(0.26458333)"
       d="m 579.44141,435.73828 c -2.89959,-0.0557 -5.81771,0.74293 -8.23829,1.67774 3.83827,1.7286 10.20893,3.7144 15.27149,0.79882 -2.09043,-1.74432 -4.54666,-2.42881 -7.0332,-2.47656 z"
       style="fill:#000000;fill-opacity:1;stroke:#000000;stroke-width:0.99999994px;stroke-linecap:butt;stroke-linejoin:miter;stroke-opacity:1"
       inkscape:connector-curvature="0" />
    <path
       id="path4789"
       transform="scale(0.26458333)"
       d="m 641.16992,434.90625 c -3.51146,-0.0856 -6.6086,1.63325 -9.06445,3.69922 4.4698,0.8006 10.40093,1.06621 15.66406,-1.33789 -2.30533,-1.60719 -4.52316,-2.31072 -6.59961,-2.36133 z"
       style="fill:#000000;fill-opacity:1;stroke:#000000;stroke-width:0.99999994px;stroke-linecap:butt;stroke-linejoin:miter;stroke-opacity:1"
       inkscape:connector-curvature="0" />
    <path
       inkscape:connector-curvature="0"
       id="path4794"
       d="m 153.14347,104.87105 c 0,0 2.46917,2.05765 3.75863,-0.0274 1.28945,-2.08508 -4.30733,-1.92047 -3.75863,0.0274 z"
       style="fill:#000000;fill-opacity:1;stroke:#000000;stroke-width:0.26458332px;stroke-linecap:butt;stroke-linejoin:miter;stroke-opacity:1" />
    <path
       sodipodi:nodetypes="ccc"
       inkscape:connector-curvature="0"
       id="path4796"
       d="m 166.24477,105.43778 c 0,0 2.12525,1.82014 4.2652,0.80503 2.13995,-1.0151 -4.67673,-3.85034 -4.2652,-0.80503 z"
       style="fill:#000000;fill-opacity:1;stroke:#000000;stroke-width:0.26458332px;stroke-linecap:butt;stroke-linejoin:miter;stroke-opacity:1" />
    <path
       inkscape:connector-curvature="0"
       id="path4798"
       d="m 158.63051,116.80538 c -0.21947,0.87793 -0.27435,6.25523 -1.4815,7.29777 -1.20715,1.04254 -2.13995,2.57891 -1.4815,3.01788 0.65845,0.43896 0.9328,0.65844 0.9328,0.65844"
       style="fill:none;stroke:#000000;stroke-width:0.26458332px;stroke-linecap:butt;stroke-linejoin:miter;stroke-opacity:1" />
    <path
       inkscape:connector-curvature="0"
       id="path4800"
       d="m 159.65903,128.06793 c 0.2328,0.42679 1.12518,1.20278 2.05636,0.50439"
       style="fill:none;stroke:#000000;stroke-width:0.26458332px;stroke-linecap:butt;stroke-linejoin:miter;stroke-opacity:1" />
    <path
       inkscape:connector-curvature="0"
       id="path4802"
       d="m 165.36252,127.91273 c 0.388,-0.19399 1.55197,-1.39677 -0.73718,-2.52195 -2.28916,-1.12518 -1.78477,-8.49704 -1.78477,-8.49704"
       style="fill:none;stroke:#000000;stroke-width:0.26458332px;stroke-linecap:butt;stroke-linejoin:miter;stroke-opacity:1" />
    <path
       inkscape:connector-curvature="0"
       id="path4804"
       d="m 155.7791,124.57599 c -0.42679,0.4268 -4.88871,4.03513 -4.42312,6.75108 0.4656,2.71595 2.21156,8.41944 2.21156,8.41944"
       style="fill:none;stroke:#000000;stroke-width:0.26458332px;stroke-linecap:butt;stroke-linejoin:miter;stroke-opacity:1" />
    <path
       inkscape:connector-curvature="0"
       id="path4806"
       d="m 165.90572,124.382 c 0,0 4.9275,4.42312 4.42311,7.02267 -0.50439,2.59955 -2.52195,8.72983 -2.52195,8.72983"
       style="fill:none;stroke:#000000;stroke-width:0.26458332px;stroke-linecap:butt;stroke-linejoin:miter;stroke-opacity:1" />
    <ellipse
       transform="rotate(8.9781132)"
       ry="0.21339603"
       rx="0.92148286"
       cy="101.30621"
       cx="176.08368"
       id="path4810"
       style="opacity:1;fill:#000000;fill-opacity:1;stroke:#000000;stroke-width:0.26458332;stroke-linecap:round;stroke-miterlimit:4;stroke-dasharray:none;stroke-opacity:1;paint-order:stroke fill markers" />
    <ellipse
       style="opacity:1;fill:#000000;fill-opacity:1;stroke:#000000;stroke-width:0.26458332;stroke-linecap:round;stroke-miterlimit:4;stroke-dasharray:none;stroke-opacity:1;paint-order:stroke fill markers"
       id="ellipse4812"
       cx="-141.68909"
       cy="151.57097"
       rx="0.92148286"
       ry="0.21339603"
       transform="matrix(-0.98774803,0.15605716,0.15605716,0.98774803,0,0)" />
    <path
       sodipodi:nodetypes="ccc"
       inkscape:connector-curvature="0"
       id="path4814"
       d="m 167.30249,132.95664 c -2.36676,0.89238 -13.34695,0.31039 -13.34695,0.31039 0,0 4.30672,-1.82356 6.63468,-1.04757 0,0 3.80232,-1.04759 6.71227,0.73718 z"
       style="fill:none;stroke:#000000;stroke-width:0.26458332px;stroke-linecap:butt;stroke-linejoin:miter;stroke-opacity:1" />
    <path
       inkscape:connector-curvature="0"
       id="path4816"
       d="m 154.07627,133.23908 c 0,0 -1.06998,-0.46639 -0.16461,2.19482 0.90536,2.66122 1.23458,7.21547 3.59401,7.68187 2.35943,0.4664 5.78884,1.15228 6.88624,-0.27436 1.09741,-1.42663 2.68866,-6.72163 2.96301,-7.21546 0.27435,-0.49383 1.17972,-1.26202 1.0151,-1.53638 -0.16461,-0.27435 -0.98767,-1.12484 -0.98767,-1.12484"
       style="fill:none;stroke:#000000;stroke-width:0.26458332px;stroke-linecap:butt;stroke-linejoin:miter;stroke-opacity:1" />
    <path
       inkscape:connector-curvature="0"
       id="path4818"
       d="m 153.60987,134.11701 c 0,0 2.24969,6.41984 4.3622,7.2429 2.11251,0.82306 5.02065,1.09741 5.81627,0.13718 0.79562,-0.96024 3.4294,-5.73396 3.4294,-5.73396"
       style="fill:none;stroke:#000000;stroke-width:0.26458332px;stroke-linecap:butt;stroke-linejoin:miter;stroke-opacity:1" />
    <path
       inkscape:connector-curvature="0"
       id="path4832"
       d="m 161.20943,85.968177 c 0,0 -24.25275,0.548704 -20.08259,43.347673"
       style="fill:none;stroke:#000000;stroke-width:0.26458332px;stroke-linecap:butt;stroke-linejoin:miter;stroke-opacity:1" />
    <path
       style="fill:none;stroke:#000000;stroke-width:0.26458332px;stroke-linecap:butt;stroke-linejoin:miter;stroke-opacity:1"
       d="m 160.9275,85.968177 c 0,0 24.25275,0.548704 20.08259,43.347673"
       id="path4834"
       inkscape:connector-curvature="0" />
  </g>
</svg>
