<?xml version="1.0" encoding="UTF-8" standalone="no"?>
<!-- Created with Inkscape (http://www.inkscape.org/) -->

<svg
   xmlns:osb="http://www.openswatchbook.org/uri/2009/osb"
   xmlns:dc="http://purl.org/dc/elements/1.1/"
   xmlns:cc="http://creativecommons.org/ns#"
   xmlns:rdf="http://www.w3.org/1999/02/22-rdf-syntax-ns#"
   xmlns:svg="http://www.w3.org/2000/svg"
   xmlns="http://www.w3.org/2000/svg"
   xmlns:xlink="http://www.w3.org/1999/xlink"
   xmlns:sodipodi="http://sodipodi.sourceforge.net/DTD/sodipodi-0.dtd"
   xmlns:inkscape="http://www.inkscape.org/namespaces/inkscape"
   width="62.654495"
   height="94.57502"
   viewBox="0 0 16.577335 25.022975"
   version="1.1"
   id="svg8"
   inkscape:version="0.92.1 r15371"
   sodipodi:docname="icon-1.svg"
   inkscape:export-filename="C:\Users\ilung\Documents\github\math-with-friends\math-with-friends\public\img\icon-1.png"
   inkscape:export-xdpi="96"
   inkscape:export-ydpi="96">
  <defs
     id="defs2">
    <linearGradient
       id="linearGradient4819"
       osb:paint="solid">
      <stop
         style="stop-color:#b4c8d3;stop-opacity:1;"
         offset="0"
         id="stop4817" />
    </linearGradient>
    <linearGradient
       id="linearGradient4813"
       osb:paint="solid">
      <stop
         style="stop-color:#ffffff;stop-opacity:1;"
         offset="0"
         id="stop4811" />
    </linearGradient>
    <linearGradient
       id="linearGradient4807"
       osb:paint="solid">
      <stop
         style="stop-color:#0094bc;stop-opacity:1;"
         offset="0"
         id="stop4805" />
    </linearGradient>
    <linearGradient
       id="linearGradient4801"
       osb:paint="solid">
      <stop
         style="stop-color:#1abfdf;stop-opacity:1;"
         offset="0"
         id="stop4799" />
    </linearGradient>
    <linearGradient
       id="linearGradient4795"
       osb:paint="solid">
      <stop
         style="stop-color:#ef937e;stop-opacity:1;"
         offset="0"
         id="stop4793" />
    </linearGradient>
    <linearGradient
       id="linearGradient4789"
       osb:paint="solid">
      <stop
         style="stop-color:#f8c09d;stop-opacity:1;"
         offset="0"
         id="stop4787" />
    </linearGradient>
    <linearGradient
       id="linearGradient4783"
       osb:paint="solid">
      <stop
         style="stop-color:#fed883;stop-opacity:1;"
         offset="0"
         id="stop4781" />
    </linearGradient>
    <linearGradient
       id="linearGradient4777"
       osb:paint="solid">
      <stop
         style="stop-color:#fff79c;stop-opacity:1;"
         offset="0"
         id="stop4775" />
    </linearGradient>
    <linearGradient
       id="linearGradient4771"
       osb:paint="solid">
      <stop
         style="stop-color:#c42754;stop-opacity:1;"
         offset="0"
         id="stop4769" />
    </linearGradient>
    <linearGradient
       id="linearGradient4765"
       osb:paint="solid">
      <stop
         style="stop-color:#ee3466;stop-opacity:1;"
         offset="0"
         id="stop4763" />
    </linearGradient>
    <linearGradient
       id="linearGradient4759"
       osb:paint="solid">
      <stop
         style="stop-color:#8ec63f;stop-opacity:1;"
         offset="0"
         id="stop4757" />
    </linearGradient>
    <linearGradient
       id="linearGradient4753"
       osb:paint="solid">
      <stop
         style="stop-color:#d8df20;stop-opacity:1;"
         offset="0"
         id="stop4751" />
    </linearGradient>
    <linearGradient
       id="linearGradient4747"
       osb:paint="solid">
      <stop
         style="stop-color:#002337;stop-opacity:1;"
         offset="0"
         id="stop4745" />
    </linearGradient>
    <linearGradient
       id="linearGradient4741"
       osb:paint="solid">
      <stop
         style="stop-color:#0e3441;stop-opacity:1;"
         offset="0"
         id="stop4739" />
    </linearGradient>
    <linearGradient
       id="linearGradient4735"
       osb:paint="solid">
      <stop
         style="stop-color:#362337;stop-opacity:1;"
         offset="0"
         id="stop4733" />
    </linearGradient>
    <linearGradient
       id="linearGradient4729"
       osb:paint="solid">
      <stop
         style="stop-color:#523b58;stop-opacity:1;"
         offset="0"
         id="stop4727" />
    </linearGradient>
    <linearGradient
       id="linearGradient4723"
       osb:paint="solid">
      <stop
         style="stop-color:#018790;stop-opacity:1;"
         offset="0"
         id="stop4721" />
    </linearGradient>
    <linearGradient
       id="linearGradient4717"
       osb:paint="solid">
      <stop
         style="stop-color:#00b0ad;stop-opacity:1;"
         offset="0"
         id="stop4715" />
    </linearGradient>
    <linearGradient
       id="linearGradient4711"
       osb:paint="solid">
      <stop
         style="stop-color:#0e113a;stop-opacity:1;"
         offset="0"
         id="stop4709" />
    </linearGradient>
    <linearGradient
       id="linearGradient4705"
       osb:paint="solid">
      <stop
         style="stop-color:#1f2652;stop-opacity:1;"
         offset="0"
         id="stop4703" />
    </linearGradient>
    <linearGradient
       id="linearGradient4655">
      <stop
         style="stop-color:#000000;stop-opacity:1;"
         offset="0"
         id="stop4653" />
    </linearGradient>
    <linearGradient
       id="linearGradient4638">
      <stop
         style="stop-color:#fcd569;stop-opacity:1;"
         offset="0"
         id="stop4636" />
    </linearGradient>
    <linearGradient
       inkscape:collect="always"
       xlink:href="#linearGradient4735"
       id="linearGradient4737"
       x1="-719.02264"
       y1="31.426947"
       x2="-681.27179"
       y2="31.426947"
       gradientUnits="userSpaceOnUse" />
  </defs>
  <sodipodi:namedview
     id="base"
     pagecolor="#ffffff"
     bordercolor="#666666"
     borderopacity="1.0"
     inkscape:pageopacity="0.0"
     inkscape:pageshadow="2"
     inkscape:zoom="2.4109813"
     inkscape:cx="-17.877344"
     inkscape:cy="97.436852"
     inkscape:document-units="px"
     inkscape:current-layer="svg8"
     showgrid="false"
     inkscape:window-width="1920"
     inkscape:window-height="986"
     inkscape:window-x="-11"
     inkscape:window-y="-11"
     inkscape:window-maximized="1"
     inkscape:snap-nodes="false"
     units="px"
     fit-margin-top="0"
     fit-margin-left="0"
     fit-margin-right="0"
     fit-margin-bottom="0" />
  <metadata
     id="metadata5">
    <rdf:RDF>
      <cc:Work
         rdf:about="">
        <dc:format>image/svg+xml</dc:format>
        <dc:type
           rdf:resource="http://purl.org/dc/dcmitype/StillImage" />
        <dc:title></dc:title>
      </cc:Work>
    </rdf:RDF>
  </metadata>
  <path
     sodipodi:nodetypes="cc"
     inkscape:connector-curvature="0"
     id="path4677"
     d="m 3.3785068,13.710916 c 0,0 1.1216808,-1.411772 2.0306343,0 -0.077359,0.773575 -1.9919548,0.135378 -2.0306343,0 z"
     style="fill:none;stroke:#000000;stroke-width:0.39687501;stroke-linecap:butt;stroke-linejoin:miter;stroke-miterlimit:4;stroke-dasharray:none;stroke-opacity:1" />
  <path
     sodipodi:nodetypes="cc"
     inkscape:connector-curvature="0"
     id="path4679"
     d="m 11.783838,13.749591 c 0.02602,-0.156224 0.87647,-1.294224 1.62451,-0.212728 0.232072,0.599523 -1.547151,0.309431 -1.62451,0.212728 z"
     style="fill:none;stroke:#000000;stroke-width:0.39687501;stroke-linecap:butt;stroke-linejoin:miter;stroke-miterlimit:4;stroke-dasharray:none;stroke-opacity:1" />
  <path
     id="path4683"
     d="m 4.2595971,13.11094 c -0.4987812,0.119862 -0.88118,0.599901 -0.88118,0.599901 0.018791,0.06576 0.4805281,0.249443 0.9589677,0.333053 0.1047686,-0.310358 0.031053,-0.653136 -0.077788,-0.932954 z"
     style="fill:#000000;fill-opacity:1;stroke:#000000;stroke-width:0.39687501;stroke-linecap:butt;stroke-linejoin:miter;stroke-miterlimit:4;stroke-dasharray:none;stroke-opacity:1"
     inkscape:connector-curvature="0" />
  <path
     id="path4685"
     d="m 12.875782,13.101669 c -0.207669,0.264586 -0.153527,0.562727 -0.03993,0.802101 0.372619,-0.0079 0.677205,-0.09656 0.572601,-0.366792 -0.175872,-0.254273 -0.357526,-0.384811 -0.532675,-0.435309 z"
     style="fill:#000000;fill-opacity:1;stroke:#000000;stroke-width:0.39687501;stroke-linecap:butt;stroke-linejoin:miter;stroke-miterlimit:4;stroke-dasharray:none;stroke-opacity:1"
     inkscape:connector-curvature="0" />
  <path
     inkscape:connector-curvature="0"
     id="path4687"
     d="m 11.578632,14.354177 c 0,0 0.813661,0.505979 1.586299,0.109399"
     style="fill:none;stroke:#000000;stroke-width:0.39687501;stroke-linecap:butt;stroke-linejoin:miter;stroke-miterlimit:4;stroke-dasharray:none;stroke-opacity:1" />
  <path
     inkscape:connector-curvature="0"
     id="path4693"
     d="m 3.5992592,14.395204 c 0.1230716,0.09573 1.0119526,0.574351 1.5589486,0.328198"
     style="fill:none;stroke:#000000;stroke-width:0.39687501;stroke-linecap:butt;stroke-linejoin:miter;stroke-miterlimit:4;stroke-dasharray:none;stroke-opacity:1" />
  <path
     inkscape:connector-curvature="0"
     id="path4695"
     d="m 6.361614,14.203756 c 0,0 0.7247772,-0.574351 0.3008478,-1.394855"
     style="fill:none;stroke:#000000;stroke-width:0.39687501;stroke-linecap:butt;stroke-linejoin:miter;stroke-miterlimit:4;stroke-dasharray:none;stroke-opacity:1" />
  <path
     inkscape:connector-curvature="0"
     id="path4697"
     d="m 10.970093,12.863601 c -0.0547,0.150426 -0.328203,0.547001 -0.06838,0.902553"
     style="fill:none;stroke:#000000;stroke-width:0.39687501;stroke-linecap:butt;stroke-linejoin:miter;stroke-miterlimit:4;stroke-dasharray:none;stroke-opacity:1" />
  <path
     inkscape:connector-curvature="0"
     id="path4699"
     d="m 7.8111634,13.478979 c 0.1094042,0.341875 0.5333286,3.035852 -0.3828972,3.022175 0,0 -1.3534787,-0.411493 -0.7636262,0.652173"
     style="fill:none;stroke:#000000;stroke-width:0.39687501;stroke-linecap:butt;stroke-linejoin:miter;stroke-miterlimit:4;stroke-dasharray:none;stroke-opacity:1" />
  <path
     inkscape:connector-curvature="0"
     id="path4701"
     d="m 8.9611909,14.001007 c 0.00967,0.06769 -0.2707516,2.030635 0.319101,2.485114 0,0 0.1933925,0.241742 0.4641441,0.0097 0.270752,-0.232072 0.76391,0.135373 0.76391,0.135373 0,0 0.705887,0.75424 -0.9766423,0.899284"
     style="fill:none;stroke:#000000;stroke-width:0.39687501;stroke-linecap:butt;stroke-linejoin:miter;stroke-miterlimit:4;stroke-dasharray:none;stroke-opacity:1" />
  <path
     inkscape:connector-curvature="0"
     id="path4703"
     d="m 7.926534,17.675491 c 0.087029,0.05802 0.715556,0.657541 1.2570591,-0.09669"
     style="fill:none;stroke:#000000;stroke-width:0.39687501;stroke-linecap:butt;stroke-linejoin:miter;stroke-miterlimit:4;stroke-dasharray:none;stroke-opacity:1" />
  <path
     inkscape:connector-curvature="0"
     id="path4707"
     d="m 10.184411,11.269317 c 0,0 -0.2949269,0.101534 -0.203068,-0.188558 0.091864,-0.290091 1.421447,-0.265916 1.503641,-0.03868 0.08219,0.227237 -0.183728,0.193392 -0.183728,0.193392 0,0 -0.502823,-0.323931 -1.116845,0.03385 z"
     style="fill:#000000;fill-opacity:1;stroke:#000000;stroke-width:0.39687501;stroke-linecap:butt;stroke-linejoin:miter;stroke-miterlimit:4;stroke-dasharray:none;stroke-opacity:1" />
  <path
     inkscape:connector-curvature="0"
     id="path4709"
     d="m 5.1319895,10.761658 c 0,0 0.9476329,-0.241742 1.3924373,0.193393 0,0 0.551173,0.08703 0.2127373,-0.357776 -0.3384407,-0.444804 -1.4891361,-0.280421 -1.6148395,-0.135378 -0.1257084,0.145048 -0.1063737,0.212733 0.00967,0.299761 z"
     style="fill:#000000;fill-opacity:1;stroke:#000000;stroke-width:0.39687501;stroke-linecap:butt;stroke-linejoin:miter;stroke-miterlimit:4;stroke-dasharray:none;stroke-opacity:1" />
  <path
     inkscape:connector-curvature="0"
     id="path4711"
     d="m 5.54111,8.9662219 c 0,0 0.9709304,-0.1093992 1.4905766,0.1777762"
     style="fill:none;stroke:#000000;stroke-width:0.39687501;stroke-linecap:butt;stroke-linejoin:miter;stroke-miterlimit:4;stroke-dasharray:none;stroke-opacity:1" />
  <path
     inkscape:connector-curvature="0"
     id="path4713"
     d="m 9.5068661,9.7183489 c 0,0 1.1897289,-0.1504264 1.5179269,-0.1504264"
     style="fill:none;stroke:#000000;stroke-width:0.39687501;stroke-linecap:butt;stroke-linejoin:miter;stroke-miterlimit:4;stroke-dasharray:none;stroke-opacity:1" />
  <path
     inkscape:connector-curvature="0"
     id="path4719"
     d="m 8.3036493,18.284683 c 0,0 0.058019,0.35778 -0.077354,0.464144"
     style="fill:none;stroke:#000000;stroke-width:0.39687501;stroke-linecap:butt;stroke-linejoin:miter;stroke-miterlimit:4;stroke-dasharray:none;stroke-opacity:1" />
  <path
     inkscape:connector-curvature="0"
     id="path4721"
     d="m 8.4100179,19.087268 c 0.087029,0.03868 0.1353783,-0.125709 0.3287708,0.03868"
     style="fill:none;stroke:#000000;stroke-width:0.39687501;stroke-linecap:butt;stroke-linejoin:miter;stroke-miterlimit:4;stroke-dasharray:none;stroke-opacity:1" />
  <path
     inkscape:connector-curvature="0"
     id="path4723"
     d="m 8.874162,19.000239 c 0.058019,-0.05801 0.2707516,-0.232072 -0.048349,-0.493154 0,0 -0.096694,-0.261081 0.077364,-0.338436"
     style="fill:none;stroke:#000000;stroke-width:0.39687501;stroke-linecap:butt;stroke-linejoin:miter;stroke-miterlimit:4;stroke-dasharray:none;stroke-opacity:1" />
  <path
     inkscape:connector-curvature="0"
     id="path4725"
     d="m 5.6831625,19.74481 5.8695105,-0.0967 c 0,0 -0.502828,1.518141 -2.5818122,1.52781 -2.0789837,0.0097 -2.997607,-0.725225 -3.2876983,-1.431111 z"
     style="fill:none;stroke:#000000;stroke-width:0.39687501;stroke-linecap:butt;stroke-linejoin:miter;stroke-miterlimit:4;stroke-dasharray:none;stroke-opacity:1" />
  <path
     inkscape:connector-curvature="0"
     id="path4727"
     d="m 5.3157171,18.304023 c -0.02901,0.03868 -1.3150783,1.218379 -0.9282932,1.808232 0.3867901,0.589852 0.3867901,0.657542 0.3867901,0.657542"
     style="fill:none;stroke:#000000;stroke-width:0.39687501;stroke-linecap:butt;stroke-linejoin:miter;stroke-miterlimit:4;stroke-dasharray:none;stroke-opacity:1" />
  <path
     inkscape:connector-curvature="0"
     id="path4729"
     d="m 12.016817,18.603784 c 0,0 1.305409,1.131356 0.986308,1.769553 -0.319101,0.638201 -0.792915,0.754235 -0.792915,0.754235"
     style="fill:none;stroke:#000000;stroke-width:0.39687501;stroke-linecap:butt;stroke-linejoin:miter;stroke-miterlimit:4;stroke-dasharray:none;stroke-opacity:1" />
  <path
     inkscape:connector-curvature="0"
     id="path4733"
     d="m 10.970093,20.521615 c 0,0 -0.341875,2.0239 0.02736,2.215349 0.369225,0.191453 0.109399,-2.283726 0.109399,-2.283726 z"
     style="fill:none;stroke:#000000;stroke-width:0.39687501;stroke-linecap:butt;stroke-linejoin:miter;stroke-miterlimit:4;stroke-dasharray:none;stroke-opacity:1" />
  <ellipse
     transform="rotate(27.786951)"
     ry="0.12649392"
     rx="0.3282004"
     cy="11.824267"
     cx="14.519065"
     id="ellipse4735"
     style="opacity:1;fill:#000000;fill-opacity:1;stroke:#000000;stroke-width:0.39687501;stroke-linecap:round;stroke-miterlimit:4;stroke-dasharray:none;stroke-opacity:1;paint-order:stroke fill markers" />
  <ellipse
     style="opacity:1;fill:#000000;fill-opacity:1;stroke:#000000;stroke-width:0.39687501;stroke-linecap:round;stroke-miterlimit:4;stroke-dasharray:none;stroke-opacity:1;paint-order:stroke fill markers"
     id="ellipse4737"
     cx="-0.59691274"
     cy="19.83213"
     rx="0.3282004"
     ry="0.12649392"
     transform="matrix(-0.88468717,0.46618517,0.46618517,0.88468717,0,0)" />
  <path
     sodipodi:nodetypes="cssssc"
     inkscape:connector-curvature="0"
     id="path4739"
     d="M 1.0962564,8.0256918 V 19.792556 c 0,2.824551 2.2739862,5.098537 5.0985323,5.098537 h 4.4563883 c 2.824551,0 5.098278,-2.273986 5.098278,-5.098537 V 7.8912207"
     style="opacity:1;fill:none;fill-opacity:1;stroke:#000000;stroke-width:0.39687501;stroke-linecap:round;stroke-miterlimit:4;stroke-dasharray:none;stroke-opacity:1;paint-order:stroke fill markers" />
  <path
     inkscape:connector-curvature="0"
     id="path4741"
     d="m 5.8862249,23.496652 c 0,0 3.2490188,1.005647 4.7188151,0.116033"
     style="fill:none;stroke:#000000;stroke-width:0.39687501;stroke-linecap:butt;stroke-linejoin:miter;stroke-miterlimit:4;stroke-dasharray:none;stroke-opacity:1" />
  <path
     style="fill:none;stroke:#000000;stroke-width:0.39687501;stroke-linecap:butt;stroke-linejoin:miter;stroke-miterlimit:4;stroke-dasharray:none;stroke-opacity:1"
     d="M 0.1394819,8.1183681 5.7188862,7.6807712 6.703489,4.6449184 7.25049,4.6996184 6.8128882,7.7901708 c 0,0 2.5222717,-0.2334457 2.5355459,-0.1980859 L 9.6846423,4.7543176 h 0.7657997 l 0.04005,2.7844405 3.307978,0.1414459 -0.995927,-2.8711868 0.929898,0.0547 0.649196,2.7753429 2.009825,0.3245933 c 0,0 1.142631,-7.88619331 -7.1170787,-7.83149321 C 1.0146785,0.1868599 0.03008071,3.6329643 0.13947991,8.1183681 Z"
     id="path4743"
     inkscape:connector-curvature="0"
     sodipodi:nodetypes="ccccccccccccccscc" />
  <path
     style="fill:none;stroke:#000000;stroke-width:0.39687501;stroke-linecap:butt;stroke-linejoin:miter;stroke-miterlimit:4;stroke-dasharray:none;stroke-opacity:1"
     d="m 6.4639701,19.731531 c 0,0 -0.232072,0.541503 0.1160386,0.541503 0.3481105,0 0.5221633,0.07736 0.309431,-0.522163 z"
     id="path4745"
     inkscape:connector-curvature="0" />
  <path
     style="fill:none;stroke:#000000;stroke-width:0.39687501;stroke-linecap:butt;stroke-linejoin:miter;stroke-miterlimit:4;stroke-dasharray:none;stroke-opacity:1"
     d="m 9.625965,19.721861 c 0,0 0.096694,0.348111 0.2224022,0.338441 0.1257084,-0.0097 0.2320718,-0.367451 0.2320718,-0.367451"
     id="path4749"
     inkscape:connector-curvature="0" />
  <path
     style="fill:none;stroke:#000000;stroke-width:0.39687501;stroke-linecap:butt;stroke-linejoin:miter;stroke-miterlimit:4;stroke-dasharray:none;stroke-opacity:1"
     d="m 7.25049,19.776321 c 0.00683,0.04102 -0.088888,0.362391 0.1299103,0.437602 0.2188034,0.07521 0.4512792,-0.06154 0.4581129,-0.09573 0.00683,-0.03419 0.061538,-0.273498 -0.082049,-0.362386 -0.1435877,-0.08889 -0.5059738,0.02049 -0.5059738,0.02049 z"
     id="path4751"
     inkscape:connector-curvature="0" />
  <path
     style="fill:none;stroke:#000000;stroke-width:0.39687501;stroke-linecap:butt;stroke-linejoin:miter;stroke-miterlimit:4;stroke-dasharray:none;stroke-opacity:1"
     d="m 8.2282541,19.735294 c -0.013657,0.04102 -0.075211,0.341875 0.068377,0.341875 0.1435877,0 0.3008478,-0.0068 0.2256371,-0.198287 -0.075211,-0.191449 -0.2940141,-0.143588 -0.2940141,-0.143588 z"
     id="path4753"
     inkscape:connector-curvature="0" />
  <path
     style="fill:none;stroke:#000000;stroke-width:0.39687501;stroke-linecap:butt;stroke-linejoin:miter;stroke-miterlimit:4;stroke-dasharray:none;stroke-opacity:1"
     d="m 8.8813945,19.712191 c 0,0 -0.1353733,0.483489 0.02901,0.493159 0.1643829,0.0097 0.4254696,0.07735 0.4061299,-0.106369 -0.01934,-0.183722 -0.038679,-0.425464 -0.087029,-0.396455 -0.048349,0.02901 -0.3481106,0.0097 -0.3481106,0.0097 z"
     id="path4755"
     inkscape:connector-curvature="0" />
  <path
     style="fill:none;stroke:#000000;stroke-width:0.39687501;stroke-linecap:butt;stroke-linejoin:miter;stroke-miterlimit:4;stroke-dasharray:none;stroke-opacity:1"
     d="m 10.370531,19.673517 c 0,0 -0.145048,0.444804 0.145043,0.425464 0.290091,-0.01934 0.444809,-0.01934 0.36745,-0.222402 -0.07736,-0.203062 -0.116038,-0.203062 -0.116038,-0.203062 z"
     id="path4757"
     inkscape:connector-curvature="0" />
</svg>
