<?xml version="1.0" encoding="UTF-8" standalone="no"?>
<!-- Created with Inkscape (http://www.inkscape.org/) -->

<svg
   xmlns:osb="http://www.openswatchbook.org/uri/2009/osb"
   xmlns:dc="http://purl.org/dc/elements/1.1/"
   xmlns:cc="http://creativecommons.org/ns#"
   xmlns:rdf="http://www.w3.org/1999/02/22-rdf-syntax-ns#"
   xmlns:svg="http://www.w3.org/2000/svg"
   xmlns="http://www.w3.org/2000/svg"
   xmlns:xlink="http://www.w3.org/1999/xlink"
   xmlns:sodipodi="http://sodipodi.sourceforge.net/DTD/sodipodi-0.dtd"
   xmlns:inkscape="http://www.inkscape.org/namespaces/inkscape"
   width="126.14198"
   height="188.82857"
   viewBox="0 0 33.375066 49.960893"
   version="1.1"
   id="svg8"
   inkscape:version="0.92.1 r15371"
   sodipodi:docname="icon-1.svg">
  <defs
     id="defs2">
    <linearGradient
       id="linearGradient4819"
       osb:paint="solid">
      <stop
         style="stop-color:#b4c8d3;stop-opacity:1;"
         offset="0"
         id="stop4817" />
    </linearGradient>
    <linearGradient
       id="linearGradient4813"
       osb:paint="solid">
      <stop
         style="stop-color:#ffffff;stop-opacity:1;"
         offset="0"
         id="stop4811" />
    </linearGradient>
    <linearGradient
       id="linearGradient4807"
       osb:paint="solid">
      <stop
         style="stop-color:#0094bc;stop-opacity:1;"
         offset="0"
         id="stop4805" />
    </linearGradient>
    <linearGradient
       id="linearGradient4801"
       osb:paint="solid">
      <stop
         style="stop-color:#1abfdf;stop-opacity:1;"
         offset="0"
         id="stop4799" />
    </linearGradient>
    <linearGradient
       id="linearGradient4795"
       osb:paint="solid">
      <stop
         style="stop-color:#ef937e;stop-opacity:1;"
         offset="0"
         id="stop4793" />
    </linearGradient>
    <linearGradient
       id="linearGradient4789"
       osb:paint="solid">
      <stop
         style="stop-color:#f8c09d;stop-opacity:1;"
         offset="0"
         id="stop4787" />
    </linearGradient>
    <linearGradient
       id="linearGradient4783"
       osb:paint="solid">
      <stop
         style="stop-color:#fed883;stop-opacity:1;"
         offset="0"
         id="stop4781" />
    </linearGradient>
    <linearGradient
       id="linearGradient4777"
       osb:paint="solid">
      <stop
         style="stop-color:#fff79c;stop-opacity:1;"
         offset="0"
         id="stop4775" />
    </linearGradient>
    <linearGradient
       id="linearGradient4771"
       osb:paint="solid">
      <stop
         style="stop-color:#c42754;stop-opacity:1;"
         offset="0"
         id="stop4769" />
    </linearGradient>
    <linearGradient
       id="linearGradient4765"
       osb:paint="solid">
      <stop
         style="stop-color:#ee3466;stop-opacity:1;"
         offset="0"
         id="stop4763" />
    </linearGradient>
    <linearGradient
       id="linearGradient4759"
       osb:paint="solid">
      <stop
         style="stop-color:#8ec63f;stop-opacity:1;"
         offset="0"
         id="stop4757" />
    </linearGradient>
    <linearGradient
       id="linearGradient4753"
       osb:paint="solid">
      <stop
         style="stop-color:#d8df20;stop-opacity:1;"
         offset="0"
         id="stop4751" />
    </linearGradient>
    <linearGradient
       id="linearGradient4747"
       osb:paint="solid">
      <stop
         style="stop-color:#002337;stop-opacity:1;"
         offset="0"
         id="stop4745" />
    </linearGradient>
    <linearGradient
       id="linearGradient4741"
       osb:paint="solid">
      <stop
         style="stop-color:#0e3441;stop-opacity:1;"
         offset="0"
         id="stop4739" />
    </linearGradient>
    <linearGradient
       id="linearGradient4735"
       osb:paint="solid">
      <stop
         style="stop-color:#362337;stop-opacity:1;"
         offset="0"
         id="stop4733" />
    </linearGradient>
    <linearGradient
       id="linearGradient4729"
       osb:paint="solid">
      <stop
         style="stop-color:#523b58;stop-opacity:1;"
         offset="0"
         id="stop4727" />
    </linearGradient>
    <linearGradient
       id="linearGradient4723"
       osb:paint="solid">
      <stop
         style="stop-color:#018790;stop-opacity:1;"
         offset="0"
         id="stop4721" />
    </linearGradient>
    <linearGradient
       id="linearGradient4717"
       osb:paint="solid">
      <stop
         style="stop-color:#00b0ad;stop-opacity:1;"
         offset="0"
         id="stop4715" />
    </linearGradient>
    <linearGradient
       id="linearGradient4711"
       osb:paint="solid">
      <stop
         style="stop-color:#0e113a;stop-opacity:1;"
         offset="0"
         id="stop4709" />
    </linearGradient>
    <linearGradient
       id="linearGradient4705"
       osb:paint="solid">
      <stop
         style="stop-color:#1f2652;stop-opacity:1;"
         offset="0"
         id="stop4703" />
    </linearGradient>
    <linearGradient
       id="linearGradient4655">
      <stop
         style="stop-color:#000000;stop-opacity:1;"
         offset="0"
         id="stop4653" />
    </linearGradient>
    <linearGradient
       id="linearGradient4638">
      <stop
         style="stop-color:#fcd569;stop-opacity:1;"
         offset="0"
         id="stop4636" />
    </linearGradient>
    <linearGradient
       inkscape:collect="always"
       xlink:href="#linearGradient4735"
       id="linearGradient4737"
       x1="-719.02264"
       y1="31.426947"
       x2="-681.27179"
       y2="31.426947"
       gradientUnits="userSpaceOnUse" />
  </defs>
  <sodipodi:namedview
     id="base"
     pagecolor="#ffffff"
     bordercolor="#666666"
     borderopacity="1.0"
     inkscape:pageopacity="0.0"
     inkscape:pageshadow="2"
     inkscape:zoom="2.4109813"
     inkscape:cx="0.44783015"
     inkscape:cy="70.993486"
     inkscape:document-units="px"
     inkscape:current-layer="svg8"
     showgrid="false"
     inkscape:window-width="1920"
     inkscape:window-height="986"
     inkscape:window-x="-11"
     inkscape:window-y="-11"
     inkscape:window-maximized="1"
     inkscape:snap-nodes="false"
     units="px"
     fit-margin-top="0"
     fit-margin-left="0"
     fit-margin-right="0"
     fit-margin-bottom="0" />
  <metadata
     id="metadata5">
    <rdf:RDF>
      <cc:Work
         rdf:about="">
        <dc:format>image/svg+xml</dc:format>
        <dc:type
           rdf:resource="http://purl.org/dc/dcmitype/StillImage" />
        <dc:title />
      </cc:Work>
    </rdf:RDF>
  </metadata>
  <path
     sodipodi:nodetypes="cc"
     inkscape:connector-curvature="0"
     id="path4677"
     d="m 6.645729,27.374958 c 0,0 2.25035,-2.83234 4.07392,0 -0.1552,1.55197 -3.99632,0.2716 -4.07392,0 z"
     style="fill:none;stroke:#5a5a5a;stroke-width:0.52916667;stroke-linecap:butt;stroke-linejoin:miter;stroke-opacity:1;stroke-miterlimit:4;stroke-dasharray:none" />
  <path
     sodipodi:nodetypes="cc"
     inkscape:connector-curvature="0"
     id="path4679"
     d="m 23.508759,27.452548 c 0.0522,-0.31342 1.7584,-2.59651 3.25914,-0.42678 0.46559,1.20278 -3.10394,0.62079 -3.25914,0.42678 z"
     style="fill:none;stroke:#5a5a5a;stroke-width:0.52916667;stroke-linecap:butt;stroke-linejoin:miter;stroke-opacity:1;stroke-miterlimit:4;stroke-dasharray:none" />
  <path
     id="path4683"
     d="m 8.413399,26.171268 c -1.00067,0.24047 -1.76785,1.20354 -1.76785,1.20354 0.0377,0.13193 0.96405,0.50044 1.92391,0.66818 0.21019,-0.62265 0.0623,-1.31034 -0.15606,-1.87172 z"
     style="fill:#5a5a5a;fill-opacity:1;stroke:#5a5a5a;stroke-width:0.52916667;stroke-linecap:butt;stroke-linejoin:miter;stroke-opacity:1;stroke-miterlimit:4;stroke-dasharray:none"
     inkscape:connector-curvature="0" />
  <path
     id="path4685"
     d="m 25.699449,26.152668 c -0.41663,0.53082 -0.30801,1.12896 -0.0801,1.6092 0.74756,-0.0159 1.35863,-0.19373 1.14877,-0.73587 -0.35284,-0.51013 -0.71728,-0.77202 -1.06867,-0.87333 z"
     style="fill:#5a5a5a;fill-opacity:1;stroke:#5a5a5a;stroke-width:0.52916667;stroke-linecap:butt;stroke-linejoin:miter;stroke-opacity:1;stroke-miterlimit:4;stroke-dasharray:none"
     inkscape:connector-curvature="0" />
  <path
     inkscape:connector-curvature="0"
     id="path4687"
     d="m 23.097069,28.665488 c 0,0 1.63239,1.01511 3.18248,0.21948"
     style="fill:none;stroke:#5a5a5a;stroke-width:0.52916667;stroke-linecap:butt;stroke-linejoin:miter;stroke-opacity:1;stroke-miterlimit:4;stroke-dasharray:none" />
  <path
     inkscape:connector-curvature="0"
     id="path4693"
     d="m 7.088609,28.747798 c 0.24691,0.19205 2.03021,1.15228 3.12761,0.65844"
     style="fill:none;stroke:#5a5a5a;stroke-width:0.52916667;stroke-linecap:butt;stroke-linejoin:miter;stroke-opacity:1;stroke-miterlimit:4;stroke-dasharray:none" />
  <path
     inkscape:connector-curvature="0"
     id="path4695"
     d="m 12.630529,28.363708 c 0,0 1.45407,-1.15228 0.60357,-2.7984"
     style="fill:none;stroke:#5a5a5a;stroke-width:0.52916667;stroke-linecap:butt;stroke-linejoin:miter;stroke-opacity:1;stroke-miterlimit:4;stroke-dasharray:none" />
  <path
     inkscape:connector-curvature="0"
     id="path4697"
     d="m 21.876199,25.675048 c -0.10974,0.30179 -0.65845,1.09741 -0.13718,1.81073"
     style="fill:none;stroke:#5a5a5a;stroke-width:0.52916667;stroke-linecap:butt;stroke-linejoin:miter;stroke-opacity:1;stroke-miterlimit:4;stroke-dasharray:none" />
  <path
     inkscape:connector-curvature="0"
     id="path4699"
     d="m 15.538659,26.909638 c 0.21949,0.68588 1.06998,6.09062 -0.76818,6.06318 0,0 -2.71539,-0.82555 -1.53201,1.30841"
     style="fill:none;stroke:#5a5a5a;stroke-width:0.52916667;stroke-linecap:butt;stroke-linejoin:miter;stroke-opacity:1;stroke-miterlimit:4;stroke-dasharray:none" />
  <path
     inkscape:connector-curvature="0"
     id="path4701"
     d="m 17.845879,27.956948 c 0.0194,0.1358 -0.54319,4.07392 0.64019,4.98571 0,0 0.38799,0.48499 0.93118,0.0194 0.54319,-0.46559 1.53258,0.27159 1.53258,0.27159 0,0 1.41617,1.51318 -1.95937,1.80417"
     style="fill:none;stroke:#5a5a5a;stroke-width:0.52916667;stroke-linecap:butt;stroke-linejoin:miter;stroke-opacity:1;stroke-miterlimit:4;stroke-dasharray:none" />
  <path
     inkscape:connector-curvature="0"
     id="path4703"
     d="m 15.770119,35.328808 c 0.1746,0.1164 1.43557,1.31918 2.52195,-0.19399"
     style="fill:none;stroke:#5a5a5a;stroke-width:0.52916667;stroke-linecap:butt;stroke-linejoin:miter;stroke-opacity:1;stroke-miterlimit:4;stroke-dasharray:none" />
  <path
     inkscape:connector-curvature="0"
     id="path4707"
     d="m 20.299939,22.476548 c 0,0 -0.59169,0.2037 -0.4074,-0.37829 0.1843,-0.58199 2.85175,-0.53349 3.01665,-0.0776 0.16489,0.45589 -0.3686,0.38799 -0.3686,0.38799 0,0 -1.00878,-0.64988 -2.24065,0.0679 z"
     style="fill:#5a5a5a;fill-opacity:1;stroke:#5a5a5a;stroke-width:0.52916667;stroke-linecap:butt;stroke-linejoin:miter;stroke-opacity:1;stroke-miterlimit:4;stroke-dasharray:none" />
  <path
     inkscape:connector-curvature="0"
     id="path4709"
     d="m 10.163619,21.458068 c 0,0 1.90117,-0.48499 2.79355,0.38799 0,0 1.10578,0.1746 0.4268,-0.71778 -0.67899,-0.89238 -2.98755,-0.56259 -3.23974,-0.2716 -0.2522,0.291 -0.21341,0.42679 0.0194,0.60139 z"
     style="fill:#5a5a5a;fill-opacity:1;stroke:#5a5a5a;stroke-width:0.52916667;stroke-linecap:butt;stroke-linejoin:miter;stroke-opacity:1;stroke-miterlimit:4;stroke-dasharray:none" />
  <path
     inkscape:connector-curvature="0"
     id="path4711"
     d="m 10.984409,17.856008 c 0,0 1.94791,-0.21948 2.99044,0.35666"
     style="fill:none;stroke:#5a5a5a;stroke-width:0.52916667;stroke-linecap:butt;stroke-linejoin:miter;stroke-opacity:1;stroke-miterlimit:4;stroke-dasharray:none" />
  <path
     inkscape:connector-curvature="0"
     id="path4713"
     d="m 18.940629,19.364948 c 0,0 2.38687,-0.30179 3.04531,-0.30179"
     style="fill:none;stroke:#5a5a5a;stroke-width:0.52916667;stroke-linecap:butt;stroke-linejoin:miter;stroke-opacity:1;stroke-miterlimit:4;stroke-dasharray:none" />
  <path
     inkscape:connector-curvature="0"
     id="path4719"
     d="m 16.526699,36.550988 c 0,0 0.1164,0.71779 -0.15519,0.93118"
     style="fill:none;stroke:#5a5a5a;stroke-width:0.52916667;stroke-linecap:butt;stroke-linejoin:miter;stroke-opacity:1;stroke-miterlimit:4;stroke-dasharray:none" />
  <path
     inkscape:connector-curvature="0"
     id="path4721"
     d="m 16.740099,38.161158 c 0.1746,0.0776 0.2716,-0.2522 0.65959,0.0776"
     style="fill:none;stroke:#5a5a5a;stroke-width:0.52916667;stroke-linecap:butt;stroke-linejoin:miter;stroke-opacity:1;stroke-miterlimit:4;stroke-dasharray:none" />
  <path
     inkscape:connector-curvature="0"
     id="path4723"
     d="m 17.671279,37.986558 c 0.1164,-0.11639 0.54319,-0.46559 -0.097,-0.98938 0,0 -0.19399,-0.52379 0.15521,-0.67898"
     style="fill:none;stroke:#5a5a5a;stroke-width:0.52916667;stroke-linecap:butt;stroke-linejoin:miter;stroke-opacity:1;stroke-miterlimit:4;stroke-dasharray:none" />
  <path
     inkscape:connector-curvature="0"
     id="path4725"
     d="m 11.269399,39.480338 11.77559,-0.194 c 0,0 -1.00879,3.04574 -5.17971,3.06514 -4.17092,0.0194 -6.01389,-1.45497 -6.59588,-2.87114 z"
     style="fill:none;stroke:#5a5a5a;stroke-width:0.52916667;stroke-linecap:butt;stroke-linejoin:miter;stroke-opacity:1;stroke-miterlimit:4;stroke-dasharray:none" />
  <path
     inkscape:connector-curvature="0"
     id="path4727"
     d="m 10.532219,36.589788 c -0.0582,0.0776 -2.63835,2.44435 -1.86237,3.62773 0.77599,1.18338 0.77599,1.31918 0.77599,1.31918"
     style="fill:none;stroke:#5a5a5a;stroke-width:0.52916667;stroke-linecap:butt;stroke-linejoin:miter;stroke-opacity:1;stroke-miterlimit:4;stroke-dasharray:none" />
  <path
     inkscape:connector-curvature="0"
     id="path4729"
     d="m 23.976169,37.191178 c 0,0 2.61895,2.26976 1.97876,3.55013 -0.64019,1.28038 -1.59077,1.51317 -1.59077,1.51317"
     style="fill:none;stroke:#5a5a5a;stroke-width:0.52916667;stroke-linecap:butt;stroke-linejoin:miter;stroke-opacity:1;stroke-miterlimit:4;stroke-dasharray:none" />
  <path
     inkscape:connector-curvature="0"
     id="path4733"
     d="m 21.876199,41.038788 c 0,0 -0.68588,4.06041 0.0549,4.4445 0.74075,0.3841 0.21948,-4.58168 0.21948,-4.58168 z"
     style="fill:none;stroke:#5a5a5a;stroke-width:0.52916667;stroke-linecap:butt;stroke-linejoin:miter;stroke-opacity:1;stroke-miterlimit:4;stroke-dasharray:none" />
  <ellipse
     transform="rotate(27.786951)"
     ry="0.25377592"
     rx="0.6584456"
     cy="23.666855"
     cx="28.949837"
     id="ellipse4735"
     style="opacity:1;fill:#5a5a5a;fill-opacity:1;stroke:#5a5a5a;stroke-width:0.52916667;stroke-linecap:round;stroke-miterlimit:4;stroke-dasharray:none;stroke-opacity:1;paint-order:stroke fill markers" />
  <ellipse
     style="opacity:1;fill:#5a5a5a;fill-opacity:1;stroke:#5a5a5a;stroke-width:0.52916667;stroke-linecap:round;stroke-miterlimit:4;stroke-dasharray:none;stroke-opacity:1;paint-order:stroke fill markers"
     id="ellipse4737"
     cx="-1.1421458"
     cy="39.609089"
     rx="0.6584456"
     ry="0.25377592"
     transform="matrix(-0.88468717,0.46618517,0.46618517,0.88468717,0,0)" />
  <path
     sodipodi:nodetypes="cssssc"
     inkscape:connector-curvature="0"
     id="path4739"
     d="m 2.067009,15.969088 v 23.60704 c 0,5.6667 4.56214,10.22884 10.22883,10.22884 h 8.94054 c 5.6667,0 10.22832,-4.56214 10.22832,-10.22884 v -23.87682"
     style="opacity:1;fill:none;fill-opacity:1;stroke:#5a5a5a;stroke-width:0.52916667;stroke-linecap:round;stroke-miterlimit:4;stroke-dasharray:none;stroke-opacity:1;paint-order:stroke fill markers" />
  <path
     inkscape:connector-curvature="0"
     id="path4741"
     d="m 11.676789,47.007398 c 0,0 6.51828,2.01756 9.46703,0.23279"
     style="fill:none;stroke:#5a5a5a;stroke-width:0.52916667;stroke-linecap:butt;stroke-linejoin:miter;stroke-opacity:1;stroke-miterlimit:4;stroke-dasharray:none" />
  <path
     style="fill:none;stroke:#5a5a5a;stroke-width:0.52916667;stroke-linecap:butt;stroke-linejoin:miter;stroke-opacity:1;stroke-miterlimit:4;stroke-dasharray:none"
     d="m 0.147499,16.155018 11.19357,-0.87792 1.97534,-6.09062 1.09741,0.10974 -0.87793,6.20036 c 0,0 5.060258,-0.468346 5.086889,-0.397406 l 0.674511,-5.693214 h 1.53637 l 0.08036,5.586229 6.636565,0.283773 -1.998059,-5.760262 1.86559,0.10974 1.302436,5.567977 4.032172,0.651209 c 0,0 2.292382,-15.82152 -14.278498,-15.711779 -16.57088,0.109741 -18.54621,7.02342 -18.32673,16.022173 z"
     id="path4743"
     inkscape:connector-curvature="0"
     sodipodi:nodetypes="ccccccccccccccscc" />
  <path
     style="fill:none;stroke:#5a5a5a;stroke-width:0.52916667;stroke-linecap:butt;stroke-linejoin:miter;stroke-opacity:1;stroke-miterlimit:4;stroke-dasharray:none"
     d="m 12.835879,39.453698 c 0,0 -0.46559,1.08638 0.2328,1.08638 0.69839,0 1.04758,0.1552 0.62079,-1.04758 z"
     id="path4745"
     inkscape:connector-curvature="0" />
  <path
     style="fill:none;stroke:#5a5a5a;stroke-width:0.52916667;stroke-linecap:butt;stroke-linejoin:miter;stroke-opacity:1;stroke-miterlimit:4;stroke-dasharray:none"
     d="m 19.179569,39.434298 c 0,0 0.19399,0.69839 0.44619,0.67899 0.2522,-0.0194 0.46559,-0.73719 0.46559,-0.73719"
     id="path4749"
     inkscape:connector-curvature="0" />
  <path
     style="fill:none;stroke:#5a5a5a;stroke-width:0.52916667;stroke-linecap:butt;stroke-linejoin:miter;stroke-opacity:1;stroke-miterlimit:4;stroke-dasharray:none"
     d="m 14.413819,39.543558 c 0.0137,0.0823 -0.17833,0.72704 0.26063,0.87793 0.43897,0.15089 0.90537,-0.12346 0.91908,-0.19205 0.0137,-0.0686 0.12346,-0.5487 -0.16461,-0.72703 -0.28807,-0.17833 -1.0151,0.0411 -1.0151,0.0411 z"
     id="path4751"
     inkscape:connector-curvature="0" />
  <path
     style="fill:none;stroke:#5a5a5a;stroke-width:0.52916667;stroke-linecap:butt;stroke-linejoin:miter;stroke-opacity:1;stroke-miterlimit:4;stroke-dasharray:none"
     d="m 16.375439,39.461248 c -0.0274,0.0823 -0.15089,0.68588 0.13718,0.68588 0.28807,0 0.60357,-0.0137 0.45268,-0.39781 -0.15089,-0.38409 -0.58986,-0.28807 -0.58986,-0.28807 z"
     id="path4753"
     inkscape:connector-curvature="0" />
  <path
     style="fill:none;stroke:#5a5a5a;stroke-width:0.52916667;stroke-linecap:butt;stroke-linejoin:miter;stroke-opacity:1;stroke-miterlimit:4;stroke-dasharray:none"
     d="m 17.685789,39.414898 c 0,0 -0.27159,0.96999 0.0582,0.98939 0.32979,0.0194 0.85359,0.15519 0.81479,-0.2134 -0.0388,-0.36859 -0.0776,-0.85358 -0.1746,-0.79538 -0.097,0.0582 -0.69839,0.0194 -0.69839,0.0194 z"
     id="path4755"
     inkscape:connector-curvature="0" />
  <path
     style="fill:none;stroke:#5a5a5a;stroke-width:0.52916667;stroke-linecap:butt;stroke-linejoin:miter;stroke-opacity:1;stroke-miterlimit:4;stroke-dasharray:none"
     d="m 20.673339,39.337308 c 0,0 -0.291,0.89238 0.29099,0.85358 0.58199,-0.0388 0.89239,-0.0388 0.73719,-0.44619 -0.1552,-0.40739 -0.2328,-0.40739 -0.2328,-0.40739 z"
     id="path4757"
     inkscape:connector-curvature="0" />
</svg>
