<?xml version="1.0" encoding="UTF-8" standalone="no"?>
<!-- Created with Inkscape (http://www.inkscape.org/) -->

<svg
   xmlns:osb="http://www.openswatchbook.org/uri/2009/osb"
   xmlns:dc="http://purl.org/dc/elements/1.1/"
   xmlns:cc="http://creativecommons.org/ns#"
   xmlns:rdf="http://www.w3.org/1999/02/22-rdf-syntax-ns#"
   xmlns:svg="http://www.w3.org/2000/svg"
   xmlns="http://www.w3.org/2000/svg"
   xmlns:xlink="http://www.w3.org/1999/xlink"
   xmlns:sodipodi="http://sodipodi.sourceforge.net/DTD/sodipodi-0.dtd"
   xmlns:inkscape="http://www.inkscape.org/namespaces/inkscape"
   width="63.158638"
   height="95.016113"
   viewBox="0 0 16.710723 25.139681"
   version="1.1"
   id="svg8"
   inkscape:version="0.92.1 r15371"
   sodipodi:docname="icon-2.svg">
  <defs
     id="defs2">
    <linearGradient
       id="linearGradient4819"
       osb:paint="solid">
      <stop
         style="stop-color:#b4c8d3;stop-opacity:1;"
         offset="0"
         id="stop4817" />
    </linearGradient>
    <linearGradient
       id="linearGradient4813"
       osb:paint="solid">
      <stop
         style="stop-color:#ffffff;stop-opacity:1;"
         offset="0"
         id="stop4811" />
    </linearGradient>
    <linearGradient
       id="linearGradient4807"
       osb:paint="solid">
      <stop
         style="stop-color:#0094bc;stop-opacity:1;"
         offset="0"
         id="stop4805" />
    </linearGradient>
    <linearGradient
       id="linearGradient4801"
       osb:paint="solid">
      <stop
         style="stop-color:#1abfdf;stop-opacity:1;"
         offset="0"
         id="stop4799" />
    </linearGradient>
    <linearGradient
       id="linearGradient4795"
       osb:paint="solid">
      <stop
         style="stop-color:#ef937e;stop-opacity:1;"
         offset="0"
         id="stop4793" />
    </linearGradient>
    <linearGradient
       id="linearGradient4789"
       osb:paint="solid">
      <stop
         style="stop-color:#f8c09d;stop-opacity:1;"
         offset="0"
         id="stop4787" />
    </linearGradient>
    <linearGradient
       id="linearGradient4783"
       osb:paint="solid">
      <stop
         style="stop-color:#fed883;stop-opacity:1;"
         offset="0"
         id="stop4781" />
    </linearGradient>
    <linearGradient
       id="linearGradient4777"
       osb:paint="solid">
      <stop
         style="stop-color:#fff79c;stop-opacity:1;"
         offset="0"
         id="stop4775" />
    </linearGradient>
    <linearGradient
       id="linearGradient4771"
       osb:paint="solid">
      <stop
         style="stop-color:#c42754;stop-opacity:1;"
         offset="0"
         id="stop4769" />
    </linearGradient>
    <linearGradient
       id="linearGradient4765"
       osb:paint="solid">
      <stop
         style="stop-color:#ee3466;stop-opacity:1;"
         offset="0"
         id="stop4763" />
    </linearGradient>
    <linearGradient
       id="linearGradient4759"
       osb:paint="solid">
      <stop
         style="stop-color:#8ec63f;stop-opacity:1;"
         offset="0"
         id="stop4757" />
    </linearGradient>
    <linearGradient
       id="linearGradient4753"
       osb:paint="solid">
      <stop
         style="stop-color:#d8df20;stop-opacity:1;"
         offset="0"
         id="stop4751" />
    </linearGradient>
    <linearGradient
       id="linearGradient4747"
       osb:paint="solid">
      <stop
         style="stop-color:#002337;stop-opacity:1;"
         offset="0"
         id="stop4745" />
    </linearGradient>
    <linearGradient
       id="linearGradient4741"
       osb:paint="solid">
      <stop
         style="stop-color:#0e3441;stop-opacity:1;"
         offset="0"
         id="stop4739" />
    </linearGradient>
    <linearGradient
       id="linearGradient4735"
       osb:paint="solid">
      <stop
         style="stop-color:#362337;stop-opacity:1;"
         offset="0"
         id="stop4733" />
    </linearGradient>
    <linearGradient
       id="linearGradient4729"
       osb:paint="solid">
      <stop
         style="stop-color:#523b58;stop-opacity:1;"
         offset="0"
         id="stop4727" />
    </linearGradient>
    <linearGradient
       id="linearGradient4723"
       osb:paint="solid">
      <stop
         style="stop-color:#018790;stop-opacity:1;"
         offset="0"
         id="stop4721" />
    </linearGradient>
    <linearGradient
       id="linearGradient4717"
       osb:paint="solid">
      <stop
         style="stop-color:#00b0ad;stop-opacity:1;"
         offset="0"
         id="stop4715" />
    </linearGradient>
    <linearGradient
       id="linearGradient4711"
       osb:paint="solid">
      <stop
         style="stop-color:#0e113a;stop-opacity:1;"
         offset="0"
         id="stop4709" />
    </linearGradient>
    <linearGradient
       id="linearGradient4705"
       osb:paint="solid">
      <stop
         style="stop-color:#1f2652;stop-opacity:1;"
         offset="0"
         id="stop4703" />
    </linearGradient>
    <linearGradient
       id="linearGradient4655">
      <stop
         style="stop-color:#000000;stop-opacity:1;"
         offset="0"
         id="stop4653" />
    </linearGradient>
    <linearGradient
       id="linearGradient4638">
      <stop
         style="stop-color:#fcd569;stop-opacity:1;"
         offset="0"
         id="stop4636" />
    </linearGradient>
    <linearGradient
       inkscape:collect="always"
       xlink:href="#linearGradient4735"
       id="linearGradient4737"
       x1="-719.02264"
       y1="31.426947"
       x2="-681.27179"
       y2="31.426947"
       gradientUnits="userSpaceOnUse" />
  </defs>
  <sodipodi:namedview
     id="base"
     pagecolor="#ffffff"
     bordercolor="#666666"
     borderopacity="1.0"
     inkscape:pageopacity="0.0"
     inkscape:pageshadow="2"
     inkscape:zoom="2.4109813"
     inkscape:cx="21.23015"
     inkscape:cy="55.153876"
     inkscape:document-units="px"
     inkscape:current-layer="svg8"
     showgrid="false"
     inkscape:window-width="1920"
     inkscape:window-height="986"
     inkscape:window-x="-11"
     inkscape:window-y="-11"
     inkscape:window-maximized="1"
     inkscape:snap-nodes="false"
     units="px"
     fit-margin-top="0"
     fit-margin-left="0"
     fit-margin-right="0"
     fit-margin-bottom="0" />
  <metadata
     id="metadata5">
    <rdf:RDF>
      <cc:Work
         rdf:about="">
        <dc:format>image/svg+xml</dc:format>
        <dc:type
           rdf:resource="http://purl.org/dc/dcmitype/StillImage" />
        <dc:title></dc:title>
      </cc:Work>
    </rdf:RDF>
  </metadata>
  <path
     inkscape:connector-curvature="0"
     style="opacity:1;fill:none;fill-opacity:1;stroke:#000000;stroke-width:0.39687501;stroke-linecap:round;stroke-miterlimit:4;stroke-dasharray:none;stroke-opacity:1;paint-order:stroke fill markers"
     d="M 11.274116,4.5700204 A 6.6017654,10.779083 0 0 0 8.4573373,3.527245 6.6017654,10.779083 0 0 0 6.0499459,4.2707794 c -0.00746,0.064015 -0.00934,0.1142373 -0.018904,0.1830703 -0.031364,0.225504 -0.074625,0.4770027 -0.133172,0.7560642 C 5.8393225,5.4889754 5.7656041,5.7955583 5.6729049,6.1309958 5.5802067,6.4664343 5.4685439,6.830746 5.3347234,7.225379 5.200904,7.6200109 5.0490362,7.9856687 4.8843747,8.3250708 4.7197133,8.6644717 4.5422678,8.9776865 4.3575674,9.2669661 4.1728679,9.5562456 3.9810049,9.8216638 3.7870705,10.06593 3.593135,10.310198 3.3971756,10.533319 3.2048092,10.737682 c -0.3847327,0.408726 -0.7555167,0.74262 -1.0691573,1.022386 -0.043277,0.0386 -0.059207,0.05962 -0.1001941,0.09621 A 6.6017654,10.779083 0 0 0 1.8554441,14.306268 6.6017654,10.779083 0 0 0 8.4573373,25.085287 6.6017654,10.779083 0 0 0 15.05902,14.306268 6.6017654,10.779083 0 0 0 14.9729,12.657368 C 14.865905,12.604258 14.756215,12.560758 14.654252,12.49001 14.481913,12.370432 14.31679,12.226938 14.158533,12.062919 14.000275,11.898899 13.84895,11.71447 13.704403,11.513497 13.559856,11.312525 13.42202,11.094908 13.290814,10.864471 13.159606,10.634033 13.034949,10.390767 12.916713,10.138352 12.798477,9.8859363 12.686688,9.6243446 12.581052,9.3574389 12.369779,8.8236274 12.18331,8.2683414 12.020216,7.7214934 11.857123,7.1746443 11.717362,6.6362909 11.599485,6.1363054 11.481608,5.63632 11.385658,5.174771 11.310036,4.7815483 11.285418,4.6535416 11.294464,4.682506 11.274116,4.5700204 Z"
     id="path4847"
     inkscape:export-xdpi="96"
     inkscape:export-ydpi="96" />
  <path
     style="opacity:1;fill:none;fill-opacity:1;stroke:#000000;stroke-width:0.39687501;stroke-linecap:round;stroke-miterlimit:4;stroke-dasharray:none;stroke-opacity:1;paint-order:stroke fill markers"
     d="m 11.211033,3.9800341 c 0.02035,0.1124856 0.07438,0.6735075 0.099,0.8015142 0.07562,0.3932227 0.171572,0.8547717 0.289449,1.3547571 0.117877,0.4999855 0.257638,1.0383389 0.420731,1.585188 0.163094,0.546848 0.349563,1.102134 0.560836,1.6359455 0.105636,0.2669057 0.217425,0.5284974 0.335661,0.7809131 0.118236,0.252415 0.242893,0.495681 0.374101,0.726119 0.131206,0.230437 0.269042,0.448054 0.413589,0.649026 0.144547,0.200973 0.295872,0.385402 0.45413,0.549422 0.158257,0.164019 0.32338,0.307513 0.495719,0.427091 0.101963,0.07075 0.968654,0.353431 1.075648,0.406538"
     id="path4772"
     inkscape:connector-curvature="0"
     sodipodi:nodetypes="ccsscscccsc"
     inkscape:export-xdpi="96"
     inkscape:export-ydpi="96" />
  <path
     style="opacity:1;fill:none;fill-opacity:1;stroke:#000000;stroke-width:0.39687501;stroke-linecap:round;stroke-miterlimit:4;stroke-dasharray:none;stroke-opacity:1;paint-order:stroke fill markers"
     d="m 1.1049778,12.494099 c 0.040987,-0.03659 0.9873976,-0.695428 1.0306741,-0.734031 0.3136406,-0.279766 0.6844246,-0.61366 1.0691573,-1.022386 C 3.3971756,10.533319 3.593135,10.310198 3.7870705,10.06593 3.9810049,9.8216638 4.1728679,9.5562456 4.3575674,9.2669661 4.5422678,8.9776865 4.7197133,8.6644717 4.8843747,8.3250708 5.0490362,7.9856687 5.200904,7.6200109 5.3347234,7.225379 5.4685439,6.830746 5.5802067,6.4664343 5.6729049,6.1309958 5.7656041,5.7955583 5.8393225,5.4889754 5.8978695,5.2099139 5.9564164,4.9308524 5.9996779,4.6793537 6.0310415,4.4538497 c 0.00957,-0.068833 0.042982,-0.6293134 0.050447,-0.6933282"
     id="path4844"
     inkscape:connector-curvature="0"
     sodipodi:nodetypes="ccssccccscc"
     inkscape:export-xdpi="96"
     inkscape:export-ydpi="96" />
  <path
     style="fill:none;stroke:#000000;stroke-width:0.26000001;stroke-linecap:butt;stroke-linejoin:miter;stroke-opacity:1;stroke-miterlimit:4;stroke-dasharray:none"
     d="m 3.7066504,12.592403 c 0,0 2.0073014,-0.02256 2.6317942,0.315704 C 5.6470382,11.307022 3.7066504,12.592403 3.7066504,12.592403 Z"
     id="path4776"
     inkscape:connector-curvature="0"
     inkscape:export-xdpi="96"
     inkscape:export-ydpi="96" />
  <path
     style="fill:none;stroke:#000000;stroke-width:0.26458334;stroke-linecap:butt;stroke-linejoin:miter;stroke-opacity:1;stroke-miterlimit:4;stroke-dasharray:none"
     d="m 10.241536,13.156164 c 0.04461,-0.0902 1.53893,-0.766717 2.787916,-0.428459 -1.494329,-1.826587 -2.787916,0.428459 -2.787916,0.428459 z"
     id="path4778"
     inkscape:connector-curvature="0"
     inkscape:export-xdpi="96"
     inkscape:export-ydpi="96" />
  <path
     inkscape:connector-curvature="0"
     style="fill:#000000;fill-opacity:1;stroke:#000000;stroke-width:0;stroke-linecap:butt;stroke-linejoin:miter;stroke-opacity:1;stroke-miterlimit:4;stroke-dasharray:none"
     d="m 5.2019719,12.104545 c -0.3118392,-0.0061 -0.6256711,0.08078 -0.8859947,0.182433 0.4127904,0.187963 1.0979291,0.403894 1.6423869,0.08686 C 5.7335468,12.184167 5.4693892,12.109737 5.2019719,12.104545 Z"
     id="path4782"
     inkscape:export-xdpi="96"
     inkscape:export-ydpi="96" />
  <path
     inkscape:connector-curvature="0"
     style="fill:#000000;fill-opacity:1;stroke:#000000;stroke-width:0;stroke-linecap:butt;stroke-linejoin:miter;stroke-opacity:1;stroke-miterlimit:4;stroke-dasharray:none"
     d="m 11.840623,12.014072 c -0.377643,-0.0093 -0.710728,0.177595 -0.974845,0.402243 0.480709,0.08706 1.118578,0.115937 1.684606,-0.145478 -0.247928,-0.174762 -0.486447,-0.251262 -0.709761,-0.256765 z"
     id="path4789"
     inkscape:export-xdpi="96"
     inkscape:export-ydpi="96" />
  <path
     style="fill:#000000;fill-opacity:1;stroke:#000000;stroke-width:0.39687501;stroke-linecap:butt;stroke-linejoin:miter;stroke-opacity:1;stroke-miterlimit:4;stroke-dasharray:none"
     d="m 5.1340654,7.8229816 c 0,0 1.0036507,0.8456448 1.5277812,-0.011261 C 7.1859731,6.9548031 4.9110337,7.0224538 5.1340654,7.8229816 Z"
     id="path4794"
     inkscape:connector-curvature="0"
     inkscape:export-xdpi="96"
     inkscape:export-ydpi="96" />
  <path
     style="fill:#000000;fill-opacity:1;stroke:#000000;stroke-width:0.39687501;stroke-linecap:butt;stroke-linejoin:miter;stroke-opacity:1;stroke-miterlimit:4;stroke-dasharray:none"
     d="m 10.459389,8.0558941 c 0,0 0.863856,0.7480338 1.733688,0.330848 0.869832,-0.4171818 -1.900964,-1.5823973 -1.733688,-0.330848 z"
     id="path4796"
     inkscape:connector-curvature="0"
     sodipodi:nodetypes="ccc"
     inkscape:export-xdpi="96"
     inkscape:export-ydpi="96" />
  <path
     style="fill:none;stroke:#000000;stroke-width:0.39687501;stroke-linecap:butt;stroke-linejoin:miter;stroke-opacity:1;stroke-miterlimit:4;stroke-dasharray:none"
     d="m 7.3643984,12.727705 c -0.089209,0.360808 -0.1115158,2.570749 -0.6021896,2.999208 -0.4906737,0.428459 -0.8698317,1.05987 -0.6021896,1.240276 0.2676421,0.180402 0.3791579,0.270603 0.3791579,0.270603"
     id="path4798"
     inkscape:connector-curvature="0"
     inkscape:export-xdpi="96"
     inkscape:export-ydpi="96" />
  <path
     style="fill:none;stroke:#000000;stroke-width:0.39687501;stroke-linecap:butt;stroke-linejoin:miter;stroke-opacity:1;stroke-miterlimit:4;stroke-dasharray:none"
     d="m 7.7824639,17.356343 c 0.094627,0.1754 0.4573552,0.494313 0.8358546,0.207292"
     id="path4800"
     inkscape:connector-curvature="0"
     inkscape:export-xdpi="96"
     inkscape:export-ydpi="96" />
  <path
     style="fill:none;stroke:#000000;stroke-width:0.39687501;stroke-linecap:butt;stroke-linejoin:miter;stroke-opacity:1;stroke-miterlimit:4;stroke-dasharray:none"
     d="M 10.100778,17.292559 C 10.25849,17.212834 10.731612,16.71852 9.8011344,16.256098 8.8706529,15.793676 9.0756737,12.764019 9.0756737,12.764019"
     id="path4802"
     inkscape:connector-curvature="0"
     inkscape:export-xdpi="96"
     inkscape:export-ydpi="96" />
  <path
     style="fill:none;stroke:#000000;stroke-width:0.39687501;stroke-linecap:butt;stroke-linejoin:miter;stroke-opacity:1;stroke-miterlimit:4;stroke-dasharray:none"
     d="m 6.2053775,15.921239 c -0.1734785,0.175405 -1.9871281,1.658342 -1.7978784,2.774532 0.1892538,1.11619 0.8989392,3.460188 0.8989392,3.460188"
     id="path4804"
     inkscape:connector-curvature="0"
     inkscape:export-xdpi="96"
     inkscape:export-ydpi="96" />
  <path
     style="fill:none;stroke:#000000;stroke-width:0.39687501;stroke-linecap:butt;stroke-linejoin:miter;stroke-opacity:1;stroke-miterlimit:4;stroke-dasharray:none"
     d="m 10.321574,15.841514 c 0,0 2.002895,1.817796 1.797874,2.886149 -0.20502,1.068352 -1.025104,3.58775 -1.025104,3.58775"
     id="path4806"
     inkscape:connector-curvature="0"
     inkscape:export-xdpi="96"
     inkscape:export-ydpi="96" />
  <ellipse
     style="opacity:1;fill:#000000;fill-opacity:1;stroke:#000000;stroke-width:0.39687615;stroke-linecap:round;stroke-miterlimit:4;stroke-dasharray:none;stroke-opacity:1;paint-order:stroke fill markers"
     id="path4810"
     cx="9.7162085"
     cy="15.797819"
     rx="0.37465942"
     ry="0.087677367"
     transform="matrix(0.98748016,0.15774325,-0.15438822,0.98801026,0,0)"
     inkscape:export-xdpi="96"
     inkscape:export-ydpi="96" />
  <ellipse
     transform="matrix(-0.98748016,0.15774325,0.15438822,0.98801026,0,0)"
     ry="0.087677367"
     rx="0.37465942"
     cy="18.430954"
     cx="-6.6245637"
     id="ellipse4812"
     style="opacity:1;fill:#000000;fill-opacity:1;stroke:#000000;stroke-width:0.39687615;stroke-linecap:round;stroke-miterlimit:4;stroke-dasharray:none;stroke-opacity:1;paint-order:stroke fill markers"
     inkscape:export-xdpi="96"
     inkscape:export-ydpi="96" />
  <path
     style="fill:none;stroke:#000000;stroke-width:0.39687501;stroke-linecap:butt;stroke-linejoin:miter;stroke-opacity:1;stroke-miterlimit:4;stroke-dasharray:none"
     d="m 10.889323,19.365485 c -0.9620235,0.366747 -5.4251732,0.127563 -5.4251732,0.127563 0,0 1.750565,-0.749439 2.6968176,-0.430526 0,0 1.5455401,-0.430535 2.7283556,0.302963 z"
     id="path4814"
     inkscape:connector-curvature="0"
     sodipodi:nodetypes="ccc"
     inkscape:export-xdpi="96"
     inkscape:export-ydpi="96" />
  <path
     style="fill:none;stroke:#000000;stroke-width:0.39687501;stroke-linecap:butt;stroke-linejoin:miter;stroke-opacity:1;stroke-miterlimit:4;stroke-dasharray:none"
     d="m 5.5132233,19.481561 c 0,0 -0.4349179,-0.191675 -0.066909,0.902018 0.3680043,1.093698 0.5018233,2.965385 1.4608677,3.157065 0.9590443,0.191679 2.3530065,0.473559 2.7990699,-0.112756 0.4460681,-0.58631 1.0928681,-2.762428 1.2043841,-2.965381 0.111516,-0.202952 0.479524,-0.51866 0.41261,-0.631415 -0.06691,-0.112751 -0.401461,-0.462282 -0.401461,-0.462282"
     id="path4816"
     inkscape:connector-curvature="0"
     inkscape:export-xdpi="96"
     inkscape:export-ydpi="96" />
  <path
     style="fill:none;stroke:#000000;stroke-width:0.39687501;stroke-linecap:butt;stroke-linejoin:miter;stroke-opacity:1;stroke-miterlimit:4;stroke-dasharray:none"
     d="m 5.3236443,19.842369 c 0,0 0.914438,2.6384 1.7731161,2.976658 0.8586781,0.338258 2.0407582,0.45101 2.3641561,0.05638 0.323398,-0.394636 1.3939585,-2.35652 1.3939585,-2.35652"
     id="path4818"
     inkscape:connector-curvature="0"
     inkscape:export-xdpi="96"
     inkscape:export-ydpi="96" />
  <path
     style="fill:none;stroke:#000000;stroke-width:0.39687501;stroke-linecap:butt;stroke-linejoin:miter;stroke-opacity:1;stroke-miterlimit:4;stroke-dasharray:none"
     d="m 8.4126595,0.05435451 c 0,0 -9.8580856,0.22550418 -8.16302858,17.81485349"
     id="path4832"
     inkscape:connector-curvature="0"
     inkscape:export-xdpi="96"
     inkscape:export-ydpi="96" />
  <path
     inkscape:connector-curvature="0"
     id="path4834"
     d="m 8.2980626,0.05435451 c 0,0 9.8580854,0.22550418 8.1630284,17.81485349"
     style="fill:none;stroke:#000000;stroke-width:0.39687501;stroke-linecap:butt;stroke-linejoin:miter;stroke-opacity:1;stroke-miterlimit:4;stroke-dasharray:none"
     inkscape:export-xdpi="96"
     inkscape:export-ydpi="96" />
</svg>
